<?xml version="1.0" encoding="utf-8"?>
<!-- Generator: Adobe Illustrator 23.0.5, SVG Export Plug-In . SVG Version: 6.00 Build 0)  -->
<svg version="1.1" id="Layer_1" xmlns="http://www.w3.org/2000/svg" xmlns:xlink="http://www.w3.org/1999/xlink" x="0px" y="0px"
	 viewBox="0 0 48 48" style="enable-background:new 0 0 48 48;" xml:space="preserve">
<style type="text/css">
	.st0{opacity:0.4;fill:#637381;}
	.st1{fill:#637381;}
</style>
<g>
	<path class="st0" d="M32.1,43.5c0.2-2.1,1.7-3.8,3.8-4.2c1.1-0.2,2.2,0,3.1,0.4l2.1,0.9c0.4,0.2,1,0.1,1.3-0.2
		c1.6-2,2.9-4.1,3.8-6.5c0.1-0.4,0-1-0.4-1.2l-1.7-1.3c-0.9-0.7-1.5-1.5-1.8-2.5c-0.7-2.1,0.1-4.2,1.7-5.4l2-1.4
		c0.4-0.3,0.5-0.8,0.4-1.2c-0.9-2.4-2.2-4.7-3.8-6.5c-0.3-0.3-0.9-0.4-1.3-0.2l-2.1,0.5c-1,0.4-2.1,0.7-3.1,0.4
		c-2.2-0.4-3.6-2.2-3.8-4.2L32,8.5c0-0.4-0.4-0.9-0.9-1c-1.2-0.2-2.5-0.3-3.8-0.3s-2.6,0.1-3.8,0.3c-0.4,0.1-0.8,0.4-0.9,1l-0.2,2.2
		c-0.1,1.1-0.5,2.1-1.2,2.9c-1.4,1.6-3.7,2.1-5.6,1.2l-2.2-1c-0.4-0.2-1-0.1-1.3,0.2c-1.6,2-2.9,4.1-3.8,6.5c-0.1,0.4,0,1,0.4,1.2
		l1.7,1.3c0.9,0.7,1.5,1.5,2,2.5c0.7,2.1-0.1,4.2-1.7,5.4l-2,1.4c-0.4,0.3-0.5,0.8-0.4,1.2c0.9,2.4,2.2,4.7,3.8,6.5
		c0.3,0.3,0.9,0.4,1.3,0.2l2.1-0.9c1-0.4,2.1-0.7,3.1-0.4c2.2,0.4,3.6,2.2,3.8,4.2l0.2,2.4c0,0.4,0.4,0.9,0.9,1
		c1.2,0.2,2.5,0.3,3.8,0.3s2.6-0.1,3.8-0.3c0.4-0.1,0.8-0.4,0.9-1L32.1,43.5z"/>
	<g>
		<path class="st1" d="M22.9,31.5c-4.8,0-8.7-3.9-8.7-8.7s3.9-8.7,8.7-8.7s8.7,3.9,8.7,8.7S27.7,31.5,22.9,31.5z M22.9,17.4
			c-3,0-5.4,2.4-5.4,5.4s2.4,5.4,5.4,5.4s5.4-2.4,5.4-5.4S25.9,17.4,22.9,17.4z"/>
	</g>
	<g>
		<path class="st1" d="M37.7,38.2c-0.2,0-0.4,0-0.7-0.1l-2.9-1.3c-0.9-0.4-2.1-0.4-3,0.1c-0.8,0.5-1.8,0.2-2.2-0.6
			c-0.5-0.8-0.2-1.8,0.6-2.2c1.8-1,4.1-1.2,6-0.3l1.8,0.8c1.3-1.6,2.4-3.4,3.1-5.3l-1.6-1.2C37,27.1,36,25.1,36,22.9
			c0-2,1-4,2.6-5.2l1.6-1.2c-0.7-1.9-1.7-3.6-3.1-5.3L35.4,12c-1.8,0.8-4,0.8-5.9-0.3c-1.9-1-3.1-2.9-3.2-5L26,4.6
			c-1.1-0.2-2.2-0.3-3.1-0.3c-1.3,0-2.8,0.2-4.2,0.5c-0.9,0.2-1.7-0.3-2-1.2c-0.2-0.9,0.3-1.7,1.2-2c1.6-0.4,3.4-0.6,4.9-0.6
			c1.5,0,3.1,0.2,4.9,0.6c0.7,0.1,1.2,0.7,1.3,1.4l0.4,3.4c0.1,1.1,0.7,2,1.5,2.5c1,0.5,2.1,0.6,3,0.2L37,7.8
			c0.6-0.3,1.4-0.1,1.9,0.4c2.4,2.7,4,5.5,4.9,8.6c0.2,0.7-0.1,1.4-0.6,1.8l-2.6,1.8c-0.8,0.5-1.3,1.6-1.3,2.6c0,1.1,0.5,2,1.2,2.6
			l2.6,1.9c0.6,0.4,0.8,1.1,0.6,1.8c-0.9,3.2-2.6,6.1-4.9,8.6C38.5,38,38.1,38.2,37.7,38.2z"/>
	</g>
	<g>
		<path class="st1" d="M22.9,44.3c-1.5,0-3.1-0.2-4.9-0.6c-0.7-0.1-1.2-0.7-1.3-1.4l-0.3-3.1c-0.1-1.1-0.7-1.9-1.5-2.4
			c-1-0.5-2.1-0.6-3-0.2l-3,1.3C8.3,38.1,7.5,38,7,37.5c-2.4-2.6-4-5.5-4.9-8.6c-0.2-0.7,0.1-1.4,0.6-1.8l2.6-1.8
			c0.8-0.5,1.3-1.6,1.3-2.6c0-1.1-0.5-2-1.2-2.6l-2.6-1.9c-0.6-0.4-0.8-1.1-0.6-1.8c0.9-3.2,2.6-6.1,4.9-8.6
			c0.5-0.5,1.2-0.6,1.8-0.4l2.9,1.3c0.9,0.4,2.1,0.4,3-0.1c0.8-0.5,1.8-0.2,2.2,0.6c0.5,0.8,0.2,1.8-0.6,2.2c-1.8,1-4.1,1.2-6,0.3
			L8.7,11c-1.3,1.6-2.4,3.4-3.1,5.3l1.6,1.2c1.6,1.1,2.6,3.1,2.6,5.2c0,2-1,4-2.6,5.2l-1.6,1.2c0.7,1.9,1.7,3.6,3.1,5.3l1.8-0.8
			c1.8-0.8,4-0.8,5.9,0.3c1.9,1,3.1,2.9,3.2,5l0.2,1.9C21,40.9,22,41,22.9,41c1.3,0,2.8-0.2,4.2-0.5c0.9-0.2,1.7,0.3,2,1.2
			c0.2,0.9-0.3,1.7-1.2,2C26.2,44.1,24.4,44.3,22.9,44.3z"/>
	</g>
</g>
</svg>
